<svg xmlns="http://www.w3.org/2000/svg" version="1.1" xmlns:xlink="http://www.w3.org/1999/xlink" xmlns:svgjs="http://svgjs.dev/svgjs" width="1000" height="128" viewBox="0 0 1000 128"><g transform="matrix(1,0,0,1,-0.6060606060606233,0.4998327325631493)"><svg viewBox="0 0 396 51" data-background-color="#ffffff" preserveAspectRatio="xMidYMid meet" height="128" width="1000" xmlns="http://www.w3.org/2000/svg" xmlns:xlink="http://www.w3.org/1999/xlink"><g id="tight-bounds" transform="matrix(1,0,0,1,0.2400000000000091,-0.19915210438063013)"><svg viewBox="0 0 395.52 51.39830420876124" height="51.39830420876124" width="395.52"><g><svg viewBox="0 0 495.64885866244424 64.41017096040052" height="51.39830420876124" width="395.52"><g><rect width="5.779677301995375" height="64.41017096040052" x="79.21913606726726" y="0" fill="#001f3f" opacity="1" stroke-width="0" stroke="transparent" fill-opacity="1" class="rect-o-0" data-fill-palette-color="primary" rx="1%" id="o-0" data-palette-color="#001f3f"></rect></g><g transform="matrix(1,0,0,1,100.12885866244424,0.16022430587163683)"><svg viewBox="0 0 395.52 64.08972234865725" height="64.08972234865725" width="395.52"><g id="textblocktransform"><svg viewBox="0 0 395.52 64.08972234865725" height="64.08972234865725" width="395.52" id="textblock"><g><svg viewBox="0 0 395.52 64.08972234865725" height="64.08972234865725" width="395.52"><g transform="matrix(1,0,0,1,0,0)"><svg width="395.52" viewBox="3.450000047683716 -35.599998474121094 219.6800079345703 35.599998474121094" height="64.08972234865725" data-palette-color="#001f3f"><path d="M22.1 0L12.7 0Q9.85 0 7.78-1.23 5.7-2.45 4.58-4.58 3.45-6.7 3.45-9.35L3.45-9.35 3.45-35 8.25-35 8.25-8.75Q8.25-6.8 9.47-5.53 10.7-4.25 12.7-4.25L12.7-4.25 22.1-4.25 22.1 0ZM23 0L17.95 0 29.85-31.65Q30.65-33.7 32.05-34.65 33.45-35.6 35.3-35.6L35.3-35.6Q37.15-35.6 38.57-34.68 40-33.75 40.75-31.7L40.75-31.7 52.7 0 47.45 0 44.4-8.45 26.1-8.45 23 0ZM34-30.05L27.6-12.7 42.95-12.7 36.7-30.05Q36.45-30.7 36.15-31.05 35.85-31.4 35.3-31.4L35.3-31.4Q34.8-31.4 34.5-31.05 34.2-30.7 34-30.05L34-30.05ZM75.2 0L70.7 0Q66.7-0.05 63.4-1.43 60.09-2.8 57.72-5.2 55.34-7.6 54.07-10.75 52.8-13.9 52.8-17.5L52.8-17.5Q52.8-21.1 54.07-24.25 55.34-27.4 57.72-29.8 60.09-32.2 63.4-33.58 66.7-34.95 70.7-35L70.7-35 75.2-35 75.2-30.75 70.84-30.75Q68-30.75 65.59-29.73 63.2-28.7 61.42-26.93 59.65-25.15 58.65-22.75 57.65-20.35 57.65-17.5L57.65-17.5Q57.65-14.7 58.65-12.28 59.65-9.85 61.42-8.08 63.2-6.3 65.59-5.3 68-4.3 70.84-4.25L70.84-4.25 75.2-4.25 75.2 0ZM82.14 0L77.09 0 88.99-31.65Q89.79-33.7 91.19-34.65 92.59-35.6 94.44-35.6L94.44-35.6Q96.29-35.6 97.72-34.68 99.14-33.75 99.89-31.7L99.89-31.7 111.84 0 106.59 0 103.54-8.45 85.24-8.45 82.14 0ZM93.14-30.05L86.74-12.7 102.09-12.7 95.84-30.05Q95.59-30.7 95.29-31.05 94.99-31.4 94.44-31.4L94.44-31.4Q93.94-31.4 93.64-31.05 93.34-30.7 93.14-30.05L93.14-30.05ZM130.34 0L127.99 0Q125.14 0 123.07-1.23 120.99-2.45 119.87-4.58 118.74-6.7 118.74-9.35L118.74-9.35 118.74-30.75 108.09-30.75 108.09-35 134.19-35 134.19-30.75 123.54-30.75 123.54-8.75Q123.54-6.8 124.77-5.53 125.99-4.25 128.04-4.25L128.04-4.25 130.34-4.25 130.34 0ZM143.94 0L139.14 0 139.14-35 154.49-35Q157.79-35 160.49-33.58 163.19-32.15 164.79-29.58 166.39-27 166.39-23.55L166.39-23.55Q166.39-20.05 164.61-17.38 162.84-14.7 159.84-13.4L159.84-13.4 163.59-5.8Q163.99-5 164.46-4.63 164.94-4.25 165.84-4.25L165.84-4.25 168.34-4.25 168.34 0 165.09 0Q163.14 0 161.66-1 160.19-2 159.24-3.7L159.24-3.7 155.04-12.25Q154.54-12.2 153.96-12.18 153.39-12.15 152.79-12.15L152.79-12.15 143.94-12.15 143.94 0ZM143.94-30.75L143.94-16.4 153.84-16.4Q155.99-16.4 157.76-17.25 159.54-18.1 160.56-19.7 161.59-21.3 161.59-23.55L161.59-23.55Q161.59-25.85 160.54-27.45 159.49-29.05 157.74-29.9 155.99-30.75 153.89-30.75L153.89-30.75 143.94-30.75ZM190.09 0L171.84 0 171.84-4.25 178.59-4.25 178.59-30.75 171.84-30.75 171.84-35 190.09-35 190.09-30.75 183.39-30.75 183.39-4.25 190.09-4.25 190.09 0ZM201.28 0L196.48 0 196.48-35 211.23-35Q214.53-35 217.23-33.52 219.93-32.05 221.53-29.4 223.13-26.75 223.13-23.2L223.13-23.2Q223.13-19.75 221.56-17.1 219.98-14.45 217.28-12.95 214.58-11.45 211.13-11.45L211.13-11.45 201.28-11.45 201.28 0ZM201.28-30.75L201.28-15.7 210.58-15.7Q212.73-15.7 214.51-16.57 216.28-17.45 217.31-19.15 218.33-20.85 218.33-23.2L218.33-23.2Q218.33-25.6 217.31-27.28 216.28-28.95 214.51-29.85 212.73-30.75 210.63-30.75L210.63-30.75 201.28-30.75Z" opacity="1" transform="matrix(1,0,0,1,0,0)" fill="#001f3f" class="undefined-text-0" data-fill-palette-color="primary" id="text-0"></path></svg></g></svg></g></svg></g></svg></g><g transform="matrix(1,0,0,1,0,0.16022430587163683)"><svg viewBox="0 0 64.08909077408565 64.08972234865725" height="64.08972234865725" width="64.08909077408565"><g><svg xmlns="http://www.w3.org/2000/svg" xmlns:xlink="http://www.w3.org/1999/xlink" version="1.1" x="0" y="0" viewBox="2 1.999408483505249 60 60.00059127807617" style="enable-background:new 0 0 64 64;" xml:space="preserve" height="64.08972234865725" width="64.08909077408565" class="icon-icon-0" data-fill-palette-color="accent" id="icon-0"><path d="M39 44H3c-0.552 0-1 0.447-1 1v16c0 0.553 0.448 1 1 1h36c0.552 0 1-0.447 1-1V45C40 44.447 39.552 44 39 44zM38 60H28v-2h-2v2H4V46h22v2h2v-2h10V60z" fill="#001f3f" data-fill-palette-color="accent"></path><path d="M61 38h-3v-5c0-0.553-0.448-1-1-1h-8c-0.552 0-1 0.447-1 1v5h-3c-0.552 0-1 0.447-1 1v18c0 0.553 0.448 1 1 1h1v3c0 0.553 0.448 1 1 1h4c0.552 0 1-0.447 1-1v-3h2v3c0 0.553 0.448 1 1 1h4c0.552 0 1-0.447 1-1v-3h1c0.552 0 1-0.447 1-1V39C62 38.447 61.552 38 61 38zM50 34h6v4h-6V34zM60 40v2H46v-2H60zM60 44v8H46v-8H60zM50 60h-2v-2h2V60zM58 60h-2v-2h2V60zM59 56h-4-4-4-1v-2h14v2H59z" fill="#001f3f" data-fill-palette-color="accent"></path><path d="M34.287 17.127l7.42-7.42C41.895 9.52 42 9.266 42 9V3c0-0.553-0.448-1-1-1h-6c-0.265 0-0.52 0.105-0.707 0.293l-7.42 7.42L15.555 2.168c-0.397-0.266-0.925-0.212-1.262 0.125l-3 3c-0.391 0.391-0.391 1.023 0 1.414l9.354 9.354-8.908 10.689-3.292-1.646c-0.385-0.192-0.85-0.116-1.154 0.188l-2 2c-0.391 0.391-0.391 1.023 0 1.414l10 10C15.488 38.902 15.744 39 16 39s0.512-0.098 0.707-0.293l2-2c0.304-0.305 0.38-0.77 0.188-1.154l-1.646-3.292 10.69-8.908 9.354 9.354c0.391 0.391 1.023 0.391 1.414 0l3-3c0.337-0.337 0.39-0.865 0.125-1.262L34.287 17.127zM38 30.586l-9.293-9.293c-0.365-0.365-0.95-0.392-1.347-0.062l-12 10c-0.356 0.298-0.462 0.801-0.254 1.216l1.678 3.355L16 36.586 7.414 28l0.783-0.783 3.355 1.678c0.416 0.207 0.918 0.102 1.215-0.254l10-12c0.331-0.397 0.305-0.982-0.061-1.348L13.414 6l1.713-1.713 11.318 7.545c0.398 0.266 0.925 0.212 1.262-0.125L35.414 4H40v4.586l-7.707 7.707c-0.337 0.337-0.39 0.865-0.125 1.262l7.545 11.318L38 30.586z" fill="#001f3f" data-fill-palette-color="accent"></path><path d="M5.5 19c0.304 0 0.606-0.035 0.901-0.105C7.232 19.604 8.328 20 9.5 20s2.268-0.396 3.099-1.105C12.894 18.965 13.196 19 13.5 19c1.93 0 3.5-1.346 3.5-3s-1.57-3-3.5-3c-0.304 0-0.606 0.035-0.901 0.105C11.768 12.396 10.672 12 9.5 12s-2.268 0.396-3.099 1.105C6.106 13.035 5.804 13 5.5 13 3.57 13 2 14.346 2 16S3.57 19 5.5 19zM6.28 15.163c0.403 0.175 0.874 0.063 1.157-0.272C7.909 14.333 8.68 14 9.5 14s1.591 0.333 2.063 0.891c0.284 0.335 0.754 0.446 1.157 0.272C13.741 14.728 15 15.292 15 16s-1.259 1.273-2.28 0.837c-0.402-0.173-0.873-0.062-1.157 0.272C11.091 17.667 10.32 18 9.5 18s-1.591-0.333-2.063-0.891c-0.194-0.229-0.476-0.354-0.764-0.354-0.132 0-0.266 0.026-0.393 0.081C5.261 17.273 4 16.708 4 16 4 15.292 5.261 14.728 6.28 15.163z" fill="#001f3f" data-fill-palette-color="accent"></path><path d="M58.5 3c-0.304 0-0.606 0.035-0.901 0.105C56.768 2.396 55.672 2 54.5 2s-2.268 0.396-3.099 1.105C51.106 3.035 50.804 3 50.5 3 48.57 3 47 4.346 47 6s1.57 3 3.5 3c0.304 0 0.606-0.035 0.901-0.105C52.232 9.604 53.328 10 54.5 10s2.268-0.396 3.099-1.105C57.894 8.965 58.196 9 58.5 9 60.43 9 62 7.654 62 6S60.43 3 58.5 3zM57.72 6.837c-0.402-0.174-0.873-0.062-1.157 0.272C56.091 7.667 55.32 8 54.5 8s-1.591-0.333-2.063-0.891c-0.194-0.229-0.476-0.354-0.764-0.354-0.132 0-0.266 0.026-0.393 0.081C50.262 7.274 49 6.709 49 6c0-0.708 1.262-1.271 2.28-0.837 0.403 0.174 0.873 0.062 1.157-0.272C52.909 4.333 53.68 4 54.5 4s1.591 0.333 2.063 0.891c0.283 0.335 0.754 0.445 1.157 0.272C58.74 4.729 60 5.292 60 6 60 6.709 58.74 7.274 57.72 6.837z" fill="#001f3f" data-fill-palette-color="accent"></path><path d="M45.401 20.895C46.232 21.604 47.328 22 48.5 22s2.268-0.396 3.099-1.105C51.894 20.965 52.196 21 52.5 21c1.93 0 3.5-1.346 3.5-3s-1.57-3-3.5-3c-0.304 0-0.606 0.035-0.901 0.105C50.768 14.396 49.672 14 48.5 14s-2.268 0.396-3.099 1.105C45.106 15.035 44.804 15 44.5 15c-1.93 0-3.5 1.346-3.5 3s1.57 3 3.5 3C44.804 21 45.106 20.965 45.401 20.895zM43 18c0-0.708 1.261-1.272 2.28-0.837 0.403 0.174 0.873 0.063 1.157-0.272C46.909 16.333 47.68 16 48.5 16s1.591 0.333 2.063 0.891c0.284 0.335 0.754 0.445 1.157 0.272C52.741 16.728 54 17.292 54 18s-1.259 1.274-2.28 0.837c-0.401-0.172-0.872-0.062-1.157 0.272C50.091 19.667 49.32 20 48.5 20s-1.591-0.333-2.063-0.891c-0.194-0.229-0.476-0.354-0.764-0.354-0.132 0-0.266 0.026-0.393 0.081C44.261 19.274 43 18.708 43 18z" fill="#001f3f" data-fill-palette-color="accent"></path><rect x="26" y="50" width="2" height="2" fill="#001f3f" data-fill-palette-color="accent"></rect><rect x="26" y="54" width="2" height="2" fill="#001f3f" data-fill-palette-color="accent"></rect><rect x="7" y="49" width="14" height="2" fill="#001f3f" data-fill-palette-color="accent"></rect><rect x="7" y="55" width="16" height="2" fill="#001f3f" data-fill-palette-color="accent"></rect><path d="M31 56h4c0.552 0 1-0.447 1-1v-4c0-0.553-0.448-1-1-1h-4c-0.552 0-1 0.447-1 1v4C30 55.553 30.448 56 31 56zM32 52h2v2h-2V52z" fill="#001f3f" data-fill-palette-color="accent"></path></svg></g></svg></g></svg></g><defs></defs></svg><rect width="395.52" height="51.39830420876124" fill="none" stroke="none" visibility="hidden"></rect></g></svg></g></svg>