<svg xmlns="http://www.w3.org/2000/svg" version="1.1" xmlns:xlink="http://www.w3.org/1999/xlink" xmlns:svgjs="http://svgjs.dev/svgjs" width="1000" height="123" viewBox="0 0 1000 123"><g transform="matrix(1,0,0,1,-0.6060606060606233,0.12849152249093265)"><svg viewBox="0 0 396 49" data-background-color="#ffffff" preserveAspectRatio="xMidYMid meet" height="123" width="1000" xmlns="http://www.w3.org/2000/svg" xmlns:xlink="http://www.w3.org/1999/xlink"><g id="tight-bounds" transform="matrix(1,0,0,1,0.2400000000000091,-0.05118767969150895)"><svg viewBox="0 0 395.52 49.10237535938301" height="49.10237535938301" width="395.52"><g><svg viewBox="0 0 490.10654660460284 60.84495251180763" height="49.10237535938301" width="395.52"><g><rect width="5.459761800503289" height="60.84495251180763" x="74.834214645714" y="0" fill="#001f3f" opacity="1" stroke-width="0" stroke="transparent" fill-opacity="1" class="rect-i$-0" data-fill-palette-color="primary" rx="1%" id="i$-0" data-palette-color="#001f3f"></rect></g><g transform="matrix(1,0,0,1,94.58654660460286,0.1513556032631982)"><svg viewBox="0 0 395.52 60.54224130528123" height="60.54224130528123" width="395.52"><g id="textblocktransform"><svg viewBox="0 0 395.52 60.54224130528123" height="60.54224130528123" width="395.52" id="textblock"><g><svg viewBox="0 0 395.52 60.54224130528123" height="60.54224130528123" width="395.52"><g transform="matrix(1,0,0,1,0,0)"><svg width="395.52" viewBox="2.35 -35.65 232.88 35.65" height="60.54224130528123" data-palette-color="#001f3f"><path d="M23.8 0L13.65 0Q10.25 0 7.7-1.48 5.15-2.95 3.75-5.4 2.35-7.85 2.35-10.8L2.35-10.8 2.35-35 11.9-35 11.9-10.45Q11.9-9.35 12.68-8.55 13.45-7.75 14.55-7.75L14.55-7.75 23.8-7.75 23.8 0ZM28.9 0L18.95 0 30.2-30.75Q31.15-33.2 33.2-34.43 35.25-35.65 37.85-35.65L37.85-35.65Q40.45-35.65 42.52-34.45 44.6-33.25 45.5-30.8L45.5-30.8 56.75 0 46.5 0 44.45-6.4 31.05-6.4 28.9 0ZM37.35-26.65L33.3-14 42.25-14 38.4-26.65Q38.35-26.85 38.2-26.95 38.05-27.05 37.85-27.05L37.85-27.05Q37.7-27.05 37.57-26.95 37.45-26.85 37.35-26.65L37.35-26.65ZM81.2 0L75.84 0Q71.34-0.05 67.8-1.35 64.25-2.65 61.75-5 59.25-7.35 57.92-10.53 56.6-13.7 56.6-17.5L56.6-17.5Q56.6-21.3 57.92-24.48 59.25-27.65 61.75-30 64.25-32.35 67.8-33.68 71.34-35 75.84-35L75.84-35 81.2-35 81.2-27.25 76.15-27.25Q73.8-27.25 71.97-26.5 70.15-25.75 68.9-24.43 67.65-23.1 67-21.33 66.34-19.55 66.34-17.5L66.34-17.5Q66.34-15.45 67-13.68 67.65-11.9 68.9-10.58 70.15-9.25 71.97-8.5 73.8-7.75 76.15-7.75L76.15-7.75 81.2-7.75 81.2 0ZM92.54 0L82.59 0 93.84-30.75Q94.79-33.2 96.84-34.43 98.89-35.65 101.49-35.65L101.49-35.65Q104.09-35.65 106.17-34.45 108.24-33.25 109.14-30.8L109.14-30.8 120.39 0 110.14 0 108.09-6.4 94.69-6.4 92.54 0ZM100.99-26.65L96.94-14 105.89-14 102.04-26.65Q101.99-26.85 101.84-26.95 101.69-27.05 101.49-27.05L101.49-27.05Q101.34-27.05 101.22-26.95 101.09-26.85 100.99-26.65L100.99-26.65ZM140.44 0L136.59 0Q133.34 0 130.82-1.43 128.29-2.85 126.87-5.3 125.44-7.75 125.44-10.8L125.44-10.8 125.44-27.25 116.14-27.25 116.14-35 144.14-35 144.14-27.25 134.99-27.25 134.99-10.15Q134.99-9.15 135.69-8.45 136.39-7.75 137.34-7.75L137.34-7.75 140.44-7.75 140.44 0ZM157.09 0L147.54 0 147.54-35 163.79-35Q167.49-35 170.49-33.43 173.49-31.85 175.29-29.08 177.09-26.3 177.09-22.6L177.09-22.6Q177.09-19.4 175.56-16.73 174.04-14.05 171.49-12.4L171.49-12.4 173.84-8.5Q174.14-8.05 174.51-7.83 174.89-7.6 175.54-7.6L175.54-7.6 178.34-7.6 178.34 0 173.14 0Q170.64 0 168.69-1.13 166.74-2.25 165.69-4.05L165.69-4.05 162.14-10.15Q161.84-10.15 161.54-10.15 161.24-10.15 160.99-10.15L160.99-10.15 157.09-10.15 157.09 0ZM157.09-27.25L157.09-17.75 162.79-17.75Q164.04-17.75 165.09-18.32 166.14-18.9 166.79-20 167.44-21.1 167.44-22.55L167.44-22.55Q167.44-24 166.79-25.05 166.14-26.1 165.09-26.68 164.04-27.25 162.79-27.25L162.79-27.25 157.09-27.25ZM202.09 0L181.04 0 181.04-7.75 186.74-7.75 186.74-27.25 181.04-27.25 181.04-35 202.09-35 202.09-27.25 196.34-27.25 196.34-7.75 202.09-7.75 202.09 0ZM216.18 0L206.63 0 206.63-35 221.98-35Q225.68-35 228.68-33.4 231.68-31.8 233.46-28.95 235.23-26.1 235.23-22.3L235.23-22.3Q235.23-18.6 233.46-15.7 231.68-12.8 228.68-11.18 225.68-9.55 221.98-9.55L221.98-9.55 216.18-9.55 216.18 0ZM216.18-27.25L216.18-17.25 220.93-17.25Q222.23-17.25 223.28-17.85 224.33-18.45 224.96-19.58 225.58-20.7 225.58-22.25L225.58-22.25Q225.58-23.85 224.96-24.98 224.33-26.1 223.28-26.68 222.23-27.25 220.93-27.25L220.93-27.25 216.18-27.25Z" opacity="1" transform="matrix(1,0,0,1,0,0)" fill="#001f3f" class="undefined-text-0" data-fill-palette-color="primary" id="text-0"></path></svg></g></svg></g></svg></g></svg></g><g transform="matrix(1,0,0,1,0,0.1513556032631982)"><svg viewBox="0 0 60.541644487328426 60.54224130528123" height="60.54224130528123" width="60.541644487328426"><g><svg xmlns="http://www.w3.org/2000/svg" xmlns:xlink="http://www.w3.org/1999/xlink" version="1.1" x="0" y="0" viewBox="2 1.9994085215644233 60 60.000591478435574" style="enable-background:new 0 0 64 64;" xml:space="preserve" height="60.54224130528123" width="60.541644487328426" class="icon-icon-0" data-fill-palette-color="accent" id="icon-0"><path d="M39 44H3c-0.552 0-1 0.447-1 1v16c0 0.553 0.448 1 1 1h36c0.552 0 1-0.447 1-1V45C40 44.447 39.552 44 39 44zM38 60H28v-2h-2v2H4V46h22v2h2v-2h10V60z" fill="#001f3f" data-fill-palette-color="accent"></path><path d="M61 38h-3v-5c0-0.553-0.448-1-1-1h-8c-0.552 0-1 0.447-1 1v5h-3c-0.552 0-1 0.447-1 1v18c0 0.553 0.448 1 1 1h1v3c0 0.553 0.448 1 1 1h4c0.552 0 1-0.447 1-1v-3h2v3c0 0.553 0.448 1 1 1h4c0.552 0 1-0.447 1-1v-3h1c0.552 0 1-0.447 1-1V39C62 38.447 61.552 38 61 38zM50 34h6v4h-6V34zM60 40v2H46v-2H60zM60 44v8H46v-8H60zM50 60h-2v-2h2V60zM58 60h-2v-2h2V60zM59 56h-4-4-4-1v-2h14v2H59z" fill="#001f3f" data-fill-palette-color="accent"></path><path d="M34.287 17.127l7.42-7.42C41.895 9.52 42 9.266 42 9V3c0-0.553-0.448-1-1-1h-6c-0.265 0-0.52 0.105-0.707 0.293l-7.42 7.42L15.555 2.168c-0.397-0.266-0.925-0.212-1.262 0.125l-3 3c-0.391 0.391-0.391 1.023 0 1.414l9.354 9.354-8.908 10.689-3.292-1.646c-0.385-0.192-0.85-0.116-1.154 0.188l-2 2c-0.391 0.391-0.391 1.023 0 1.414l10 10C15.488 38.902 15.744 39 16 39s0.512-0.098 0.707-0.293l2-2c0.304-0.305 0.38-0.77 0.188-1.154l-1.646-3.292 10.69-8.908 9.354 9.354c0.391 0.391 1.023 0.391 1.414 0l3-3c0.337-0.337 0.39-0.865 0.125-1.262L34.287 17.127zM38 30.586l-9.293-9.293c-0.365-0.365-0.95-0.392-1.347-0.062l-12 10c-0.356 0.298-0.462 0.801-0.254 1.216l1.678 3.355L16 36.586 7.414 28l0.783-0.783 3.355 1.678c0.416 0.207 0.918 0.102 1.215-0.254l10-12c0.331-0.397 0.305-0.982-0.061-1.348L13.414 6l1.713-1.713 11.318 7.545c0.398 0.266 0.925 0.212 1.262-0.125L35.414 4H40v4.586l-7.707 7.707c-0.337 0.337-0.39 0.865-0.125 1.262l7.545 11.318L38 30.586z" fill="#001f3f" data-fill-palette-color="accent"></path><path d="M5.5 19c0.304 0 0.606-0.035 0.901-0.105C7.232 19.604 8.328 20 9.5 20s2.268-0.396 3.099-1.105C12.894 18.965 13.196 19 13.5 19c1.93 0 3.5-1.346 3.5-3s-1.57-3-3.5-3c-0.304 0-0.606 0.035-0.901 0.105C11.768 12.396 10.672 12 9.5 12s-2.268 0.396-3.099 1.105C6.106 13.035 5.804 13 5.5 13 3.57 13 2 14.346 2 16S3.57 19 5.5 19zM6.28 15.163c0.403 0.175 0.874 0.063 1.157-0.272C7.909 14.333 8.68 14 9.5 14s1.591 0.333 2.063 0.891c0.284 0.335 0.754 0.446 1.157 0.272C13.741 14.728 15 15.292 15 16s-1.259 1.273-2.28 0.837c-0.402-0.173-0.873-0.062-1.157 0.272C11.091 17.667 10.32 18 9.5 18s-1.591-0.333-2.063-0.891c-0.194-0.229-0.476-0.354-0.764-0.354-0.132 0-0.266 0.026-0.393 0.081C5.261 17.273 4 16.708 4 16 4 15.292 5.261 14.728 6.28 15.163z" fill="#001f3f" data-fill-palette-color="accent"></path><path d="M58.5 3c-0.304 0-0.606 0.035-0.901 0.105C56.768 2.396 55.672 2 54.5 2s-2.268 0.396-3.099 1.105C51.106 3.035 50.804 3 50.5 3 48.57 3 47 4.346 47 6s1.57 3 3.5 3c0.304 0 0.606-0.035 0.901-0.105C52.232 9.604 53.328 10 54.5 10s2.268-0.396 3.099-1.105C57.894 8.965 58.196 9 58.5 9 60.43 9 62 7.654 62 6S60.43 3 58.5 3zM57.72 6.837c-0.402-0.174-0.873-0.062-1.157 0.272C56.091 7.667 55.32 8 54.5 8s-1.591-0.333-2.063-0.891c-0.194-0.229-0.476-0.354-0.764-0.354-0.132 0-0.266 0.026-0.393 0.081C50.262 7.274 49 6.709 49 6c0-0.708 1.262-1.271 2.28-0.837 0.403 0.174 0.873 0.062 1.157-0.272C52.909 4.333 53.68 4 54.5 4s1.591 0.333 2.063 0.891c0.283 0.335 0.754 0.445 1.157 0.272C58.74 4.729 60 5.292 60 6 60 6.709 58.74 7.274 57.72 6.837z" fill="#001f3f" data-fill-palette-color="accent"></path><path d="M45.401 20.895C46.232 21.604 47.328 22 48.5 22s2.268-0.396 3.099-1.105C51.894 20.965 52.196 21 52.5 21c1.93 0 3.5-1.346 3.5-3s-1.57-3-3.5-3c-0.304 0-0.606 0.035-0.901 0.105C50.768 14.396 49.672 14 48.5 14s-2.268 0.396-3.099 1.105C45.106 15.035 44.804 15 44.5 15c-1.93 0-3.5 1.346-3.5 3s1.57 3 3.5 3C44.804 21 45.106 20.965 45.401 20.895zM43 18c0-0.708 1.261-1.272 2.28-0.837 0.403 0.174 0.873 0.063 1.157-0.272C46.909 16.333 47.68 16 48.5 16s1.591 0.333 2.063 0.891c0.284 0.335 0.754 0.445 1.157 0.272C52.741 16.728 54 17.292 54 18s-1.259 1.274-2.28 0.837c-0.401-0.172-0.872-0.062-1.157 0.272C50.091 19.667 49.32 20 48.5 20s-1.591-0.333-2.063-0.891c-0.194-0.229-0.476-0.354-0.764-0.354-0.132 0-0.266 0.026-0.393 0.081C44.261 19.274 43 18.708 43 18z" fill="#001f3f" data-fill-palette-color="accent"></path><rect x="26" y="50" width="2" height="2" fill="#001f3f" data-fill-palette-color="accent"></rect><rect x="26" y="54" width="2" height="2" fill="#001f3f" data-fill-palette-color="accent"></rect><rect x="7" y="49" width="14" height="2" fill="#001f3f" data-fill-palette-color="accent"></rect><rect x="7" y="55" width="16" height="2" fill="#001f3f" data-fill-palette-color="accent"></rect><path d="M31 56h4c0.552 0 1-0.447 1-1v-4c0-0.553-0.448-1-1-1h-4c-0.552 0-1 0.447-1 1v4C30 55.553 30.448 56 31 56zM32 52h2v2h-2V52z" fill="#001f3f" data-fill-palette-color="accent"></path></svg></g></svg></g></svg></g><defs></defs></svg><rect width="395.52" height="49.10237535938301" fill="none" stroke="none" visibility="hidden"></rect></g></svg></g></svg>